<?xml version="1.0" encoding="utf-8"?><svg fill="none" height="40" viewBox="0 0 66 40" width="66" xmlns="http://www.w3.org/2000/svg"><path d="m18.6635 14.4937c0 .8201.0877 1.485.2406 1.9726.1941.5485.4278 1.0818.6992 1.5955.1093.1773.1529.3545.1529.5098 0 .2215-.131.4432-.4151.6649l-1.3767.9307c-.1967.133-.3935.1994-.5685.1994-.2184 0-.437-.1108-.6556-.3103-.2945-.3209-.5579-.6697-.7866-1.0415-.2186-.3765-.4373-.798-.6776-1.3075-1.7046 2.0387-3.8465 3.0583-6.42515 3.0583-1.83563 0-3.3-.532-4.37096-1.5956-1.07069-1.064-1.617-2.4823-1.617-4.2551 0-1.8837.65562-3.4128 1.98877-4.5652 1.33289-1.15246 3.10329-1.72867 5.35424-1.72867.743 0 1.508.0664 2.3165.17725.8087.11085 1.6391.28811 2.5134.48759v-1.61778c0-1.68445-.3499-2.85882-1.0274-3.54588-.6992-.68706-1.8795-1.01961-3.5622-1.01961-.76494 0-1.55153.08889-2.36028.28837-.8085.19921-1.59535.44313-2.36028.75346-.34959.15503-.61179.24366-.76493.2881-.15288.04445-.26219.06641-.34959.06641-.30603 0-.45891-.2217-.45891-.68706v-1.08601c0-.35451.04383-.62039.15288-.77543.10932-.15529.30603-.31032.61205-.46536.76493-.39895 1.68274-.7315 2.75344-.997382 1.07121-.288104 2.20765-.4209147 3.40962-.4209147 2.6008 0 4.5021.5981697 5.726 1.7950367 1.2019 1.1966 1.8139 3.01385 1.8139 5.45176v7.18012h.0439zm-8.87283 3.3686c.72133 0 1.46433-.1328 2.25093-.3989.7869-.2659 1.4863-.7535 2.0762-1.4183.3499-.4209.612-.8863.743-1.4183.1312-.5318.2186-1.1747.2186-1.9281v-.9307c-.6627-.1636-1.334-.2894-2.0106-.3768-.6814-.0877-1.3675-.1322-2.0543-.133-1.46437 0-2.53506.2881-3.25616.8865-.72136.5984-1.07096 1.4405-1.07096 2.5485 0 1.0416.2622 1.8172.8085 2.3493.52465.554 1.28958.8198 2.29479.8198zm17.54903 2.3935c-.3934 0-.6556-.0664-.8304-.2217-.1748-.1328-.3279-.4431-.4589-.8641l-5.1356-17.13093c-.1315-.4434-.197-.7315-.197-.88654 0-.354505.1748-.554244.5246-.554244h2.1417c.4151 0 .6994.066667.8523.2217.1748.133072.3061.443394.437.864314l3.6715 14.6711 3.4093-14.6711c.1094-.44314.2406-.731242.4151-.864314.1751-.132811.4811-.221438.8745-.221438h1.7482c.4151 0 .6995.066405.874.221438.1751.133072.328.443394.4154.864314l3.4531 14.8484 3.7806-14.8484c.1309-.44314.2841-.731242.437-.864314.1748-.132811.4589-.221438.8523-.221438h2.0323c.3499 0 .5466.177255.5466.553982 0 .11085-.0219.2217-.0438.35451-.022.13308-.0655.31033-.1529.55425l-5.2671 17.13071c-.131.4434-.2839.7315-.4589.8643-.1748.1331-.4589.2217-.8302.2217h-1.8794c-.4154 0-.6995-.0664-.8745-.2217-.1748-.155-.3277-.4431-.4151-.8863l-3.3877-14.29433-3.3655 14.27193c-.109.4434-.2402.7315-.415.8865-.1748.1553-.4809.2217-.874.2217h-1.8797zm28.0828.5984c-1.1365 0-2.2729-.133-3.3655-.3989-1.0929-.2659-1.945-.5543-2.5132-.8863-.3498-.1997-.5904-.4212-.6775-.6207-.0851-.1956-.1298-.4068-.1312-.6206v-1.1302c0-.4654.1748-.6871.5027-.6871.1338.0005.2667.0231.3934.0667.131.0444.3277.1328.5463.2214.7719.3443 1.5777.6044 2.4039.7757.856.1762 1.7273.2653 2.6008.2659 1.3767 0 2.4477-.2436 3.1907-.7312s1.1364-1.1966 1.1364-2.1054c0-.6204-.1967-1.1302-.5901-1.5514-.3934-.4209-1.1365-.7976-2.2072-1.1524l-3.169-.9971c-1.5953-.5098-2.7753-1.2633-3.4967-2.26066-.7211-.97516-1.0926-2.06091-1.0926-3.21333 0-.93072.1967-1.75085.5901-2.46013.3932-.70902.9178-1.32941 1.5735-1.81699.6556-.50981 1.3986-.886537 2.2728-1.152419.874-.265882 1.7918-.3767321 2.7535-.3767321.4808 0 .9835.0222222 1.4643.0886271.5028.066406.9617.155033 1.4206.24366.437.11085.8523.2217 1.2457.354771.3935.132811.6992.265883.9179.398693.306.17752.5243.35477.6556.55425.1312.17725.1967.42091.1967.73124v1.04157c0 .46536-.1748.70928-.5028.70928-.1747 0-.4589-.08889-.8301-.26614-1.246-.57621-2.6447-.86432-4.1962-.86432-1.2457 0-2.2293.19948-2.9068.62066-.6773.42091-1.0271 1.06379-1.0271 1.97228 0 .62066.2186 1.15242.6556 1.5736.4372.42091 1.2457.84209 2.4041 1.21882l3.1033.99739c1.5734.5098 2.7099 1.21878 3.3874 2.12728.6775.9088 1.0054 1.9504 1.0054 3.1028 0 .9529-.1969 1.8172-.5684 2.5707-.3932.7535-.9178 1.4183-1.5954 1.9503-.6775.554-1.486.953-2.4257 1.2411-.9836.3103-2.0107.4653-3.1252.4653z" fill="#252f3e"/><path d="m59.553 31.6246c-7.1899 5.3854-17.6364 8.2442-26.6184 8.2442-12.5882 0-23.93037-4.7205-32.497224-12.5658-.677531-.6203-.065742-1.4624.742754-.9751 9.26627 5.452 20.69617 8.754 32.51947 8.754 7.9767 0 16.7402-1.6842 24.8046-5.1415 1.202-.5542 2.2291.7979 1.0488 1.6842zm2.9942-3.4572c-.9178-1.1966-6.0756-.5763-8.4139-.2881-.6995.0888-.8088-.5318-.1748-.9972 4.1085-2.9255 10.8616-2.0831 11.6482-1.1082.7868.9974-.2186 7.8452-4.0649 11.1252-.5899.5098-1.1581.2439-.8959-.4209.874-2.1942 2.8192-7.1362 1.9013-8.3108z" fill="#f90"/></svg>