<?xml version="1.0" encoding="utf-8"?><svg fill="none" height="30" viewBox="0 0 79 30" width="79" xmlns="http://www.w3.org/2000/svg"><g fill="#6ad7e5"><g clip-rule="evenodd" fill-rule="evenodd"><path d="m6.1825 9.26915c-.15266 0-.19083-.07692-.1145-.19231l.80145-1.03846c.07633-.11539.26715-.19231.41981-.19231h13.62464c.1527 0 .1908.11538.1145.23077l-.6488 1c-.0763.11539-.2672.23077-.3816.23077z"/><path d="m.419796 12.8076c-.152657 0-.190821-.0769-.114492-.1923l.801446-1.0385c.07633-.1154.26715-.1923.41981-.1923h17.40294c.1526 0 .2289.1154.1908.2308l-.3053.9231c-.0382.1538-.1909.2307-.3435.2307z"/><path d="m9.6554 16.3461c-.15266 0-.19083-.1154-.1145-.2308l.5343-.9616c.0763-.1153.229-.2307.3816-.2307h7.6329c.1527 0 .229.1154.229.2692l-.0763.9231c0 .1538-.1527.2692-.2672.2692z"/><path d="m49.27 8.57686c-2.4044.61538-4.0454 1.07692-6.4116 1.69234-.5725.1538-.6106.1923-1.1068-.38465-.5724-.65385-.9922-1.07692-1.7937-1.46154-2.4043-1.19231-4.7324-.84615-6.9077.57692-2.5952 1.69227-3.9309 4.19227-3.8928 7.30767.0382 3.0769 2.1372 5.6154 5.1522 6.0385 2.5952.3461 4.7705-.5769 6.4879-2.5385.3435-.4231.6488-.8846 1.0305-1.4231-1.374 0-3.0913 0-7.3657 0-.8015 0-.9923-.5-.7252-1.1538.4962-1.1923 1.4121-3.1923 1.9464-4.1923.1145-.2308.3817-.6154.9541-.6154h13.8918c-.0763 1.0385-.0763 2.0769-.229 3.1154-.4198 2.7692-1.4502 5.3077-3.1295 7.5385-2.7478 3.6538-6.3352 5.923-10.8768 6.5384-3.7401.5-7.213-.2308-10.2661-2.5384-2.8242-2.1539-4.4271-5-4.8469-8.5385-.4961-4.1923.7251-7.9615 3.244-11.26924 2.7096-3.57692 6.2971-5.84615 10.686-6.653841 3.5874-.653846 7.0222-.230769 10.1135 1.884611 2.0227 1.34616 3.4729 3.19231 4.427 5.42308.229.34615.0764.53846-.3816.65385z"/></g><path d="m61.9024 29.846c-3.4729-.0769-6.6406-1.0769-9.3121-3.3846-2.2517-1.9615-3.6637-4.4615-4.1217-7.4231-.687-4.3461.4961-8.1923 3.0913-11.61536 2.786-3.6923 6.1444-5.61538 10.686-6.423074 3.8927-.692308 7.5565-.307692 10.8768 1.961534 3.015 2.07693 4.885 4.88462 5.3812 8.5769.6487 5.1923-.8397 9.4231-4.3889 13.0385-2.5189 2.5769-5.6102 4.1923-9.1595 4.9231-1.0304.1923-2.0608.2307-3.0531.3461zm9.0831-15.5384c-.0382-.5-.0382-.8847-.1145-1.2693-.687-3.80766-4.1599-5.96151-7.7855-5.11536-3.5493.8077-5.8391 3.07696-6.6787 6.69236-.687 3 .7632 6.0384 3.5111 7.2692 2.099.9231 4.198.8077 6.2207-.2308 3.015-1.5769 4.6561-4.0384 4.8469-7.3461z"/></g></svg>