<?xml version="1.0" encoding="utf-8"?><svg fill="none" height="40" viewBox="0 0 40 40" width="40" xmlns="http://www.w3.org/2000/svg" xmlns:xlink="http://www.w3.org/1999/xlink"><clipPath id="a"><path d="m0 0h40v40h-40z"/></clipPath><g clip-path="url(#a)"><path d="m39.4064 9.04924c-.0062-.01816-.0135-.03591-.0219-.05313-.0112-.0336-.025-.06626-.0414-.09765-.0127-.01952-.0268-.03806-.0422-.05547-.0172-.02565-.036-.05017-.0562-.07344-.018-.01719-.0407-.03125-.0602-.04688-.0223-.01918-.0458-.03693-.0703-.05312l-7.5203-4.32969c-.095-.05485-.2028-.08373-.3125-.08373s-.2175.02888-.3125.08373l-7.5219 4.33203c-.0241.01636-.0471.03437-.0688.05391-.0212.01431-.0416.02996-.0609.04687-.0204.02285-.0392.04713-.0562.07266-.0133.01875-.0305.03516-.0422.05547-.0158.03157-.0294.0642-.0407.09766-.0062.01796-.0164.03437-.0218.05312-.0144.05299-.0217.10761-.0219.1625v8.22192l-6.2672 3.6085v-16.08823c.0001-.05517-.0072-.1101-.0219-.16328-.0047-.01875-.0156-.03516-.0218-.05313-.011-.03333-.0245-.06573-.0407-.09687-.0109-.02032-.0289-.03672-.0422-.05625-.0171-.02565-.0359-.05017-.0562-.07344-.0195-.01667-.0398-.03232-.0609-.04688-.0219-.01899-.0449-.03673-.0688-.05312l-7.52265-4.329688c-.09501-.0548552-.20279-.08373407-.3125-.08373407s-.21749.02887887-.3125.08373407l-7.521095 4.329688c-.024418.01597-.04742.034-.06875.05391-.021546.0143-.04216.02995-.061719.04687-.020206.02286-.038744.04714-.055469.07266-.014062.01953-.03125.03593-.042969.05625-.016009.0311-.029338.06351-.039843.09687-.008533.01701-.016097.03448-.022657.05235-.014372.0535-.021726.10865-.021875.16406v25.75783c-.000299.11.028438.2181.083308.3134.05487.0954.13393.1745.229192.2295l15.039027 8.6594c.0335.0169.0682.031.1039.0422.0165.0063.0321.0156.0493.0203.1049.0281.2154.0281.3203 0 .0156-.0039.0289-.0125.0429-.0172.0378-.0118.0744-.027.1094-.0453l15.0438-8.6594c.0952-.055.1743-.1341.2292-.2295.0548-.0953.0836-.2034.0833-.3134v-8.2235l7.2062-4.1492c.0959-.0553.1753-.1351.2302-.2312s.0833-.205.0823-.3157v-8.58198c.0005-.05499-.0058-.10982-.0187-.16328zm-30.68753-7.69922 6.26483 3.60547-6.26561 3.60781-6.26407-3.60703zm6.89453 4.6875v15.72808l-3.6352 2.093-2.63199 1.5156v-15.72574l3.63519-2.09297zm0 32.24848-13.7875-7.9344v-24.31096l2.63203 1.51407 3.63438 2.09375v16.81094c.00158.0236.00471.0471.00937.0703.00187.031.00605.0618.0125.0922.00794.0242.01787.0477.02969.0703.0087.0269.01968.0531.03281.0781.01444.0212.03009.0416.04688.061.01563.023.03286.0449.05156.0656.01797.0172.04062.0297.06016.0453.02133.0185.04376.0358.06718.0516l7.20234 4.0765zm.625-8.2946-6.25469-3.5406 6.56949-3.782 7.2079-4.1493 6.2601 3.604-4.5937 2.6218zm14.4156.3571-13.7883 7.9414v-7.2118l10.2125-5.8281 3.5758-2.043zm0-9.3071-2.632-1.5101-3.6352-2.093v-7.1422l2.6321 1.5156 3.6351 2.0946zm.625-8.225-6.2656-3.60701 6.2656-3.60625 6.2641 3.60547zm.625 8.225v-7.1351l3.643-2.0946 2.6313-1.5156v7.1399z" fill="#ff3d2e"/></g></svg>