<?xml version="1.0" encoding="utf-8"?><svg fill="none" height="40" viewBox="0 0 35 40" width="35" xmlns="http://www.w3.org/2000/svg" xmlns:xlink="http://www.w3.org/1999/xlink"><clipPath id="a"><path d="m0 0h35v40h-35z"/></clipPath><g clip-path="url(#a)" fill="#6caf6a"><path d="m17.7313 40.0013h-.005c-.565 0-1.0933-.1517-1.5466-.4183l.015.0083-4.895-2.895c-.73-.41-.3734-.5533-.1334-.6383.7921-.2456 1.5494-.5917 2.2534-1.03l-.04.0233c.0583-.0266.1225-.0378.1864-.0326.0639.0053.1254.0268.1786.0626l-.0017-.0017 3.76 2.2317c.0703.0377.1488.0572.2285.0569.0798-.0002.1582-.0204.2282-.0586l-.0034.0017 14.6567-8.4617c.068-.0415.1242-.0998.1633-.1692.0391-.0695.0598-.1478.06-.2274v-16.915c-.0006-.0803-.0218-.159-.0615-.2287s-.0965-.1281-.1652-.1697l-.0016-.0016-14.6517-8.45337c-.0693-.03874-.1475-.05894-.2269-.05865-.0794.0003-.1574.02107-.2264.06031l.0017-.00166-14.64838 8.45497c-.06992.041-.12802.0993-.16862.1695-.04061.0701-.06233.1495-.06305.2305v16.915c0 .1684.09167.3134.22834.39l.00166.0017 4.01667 2.32c2.17833 1.09 3.51168-.1933 3.51168-1.4817v-16.7033c0-.2333.19-.4233.4233-.4233h1.865c.2334 0 .4234.1883.4234.4233v16.7033c0 2.9084-1.5834 4.5767-4.34005 4.5767l-.11.0017c-1.1633.0018-2.30398-.3214-3.29333-.9334l-3.81667-2.1966c-.46758-.2727-.855526-.6632-1.12515-1.1326-.269624-.4693-.41151026-1.0012-.41151416-1.5424v-16.9184c.00166667-1.1333.61333316-2.12164 1.52333416-2.65831l.015-.00833 14.65838-8.47c.4748-.260331 1.0078-.39610486 1.5494-.39464761.5415.00145725 1.0738.14009861 1.5472.40298061l-.0166-.008333 14.6566 8.47c.925.545 1.535 1.53334 1.5384 2.66664v16.9167c-.0006.5387-.1416 1.0679-.409 1.5355s-.6521.8575-1.116 1.1312l-.0151.0083-14.6533 8.4633c-.4667.2707-.9971.4122-1.5366.41h-.0117z"/><path d="m22.2601 28.3484c-6.4134 0-7.7584-2.9434-7.7584-5.415v-.0017c0-.2333.1884-.4217.4217-.4217h1.9c.2117 0 .3867.155.42.3567v.0017c.285 1.93 1.1383 2.9033 5.0167 2.9033 3.0883 0 4.4-.6983 4.4-2.3367 0-.945-.3717-1.645-5.17-2.115-4.01-.4-6.49-1.2833-6.49-4.4916 0-2.9567 2.4933-4.7217 6.6666-4.7217 4.6967 0 7.02 1.63 7.3134 5.1267l.0016.0366c0 .1123-.0446.22-.124.2994-.0793.0794-.187.124-.2993.124h-1.8883c-.0957-.0004-.1883-.0333-.2628-.0932-.0745-.06-.1264-.1435-.1472-.2368v-.0034c-.4567-2.03-1.5667-2.6783-4.5767-2.6783-3.3717 0-3.7633 1.175-3.7633 2.0533 0 1.0667.4633 1.3767 5.015 1.9784 4.5033.5966 6.6433 1.4383 6.6433 4.6033-.0067 3.1983-2.6683 5.0283-7.3133 5.0283z"/></g></svg>