<?xml version="1.0" encoding="utf-8"?><svg fill="none" height="40" viewBox="0 0 44 40" width="44" xmlns="http://www.w3.org/2000/svg"><path d="m36.1768 12.9517c-.4683-.164-.9405-.3159-1.4163-.4556.0799-.3334.1535-.6627.2188-.9862 1.0722-5.31244.3713-9.59226-2.0228-11.001388-2.2954-1.350877-6.0493.05772-9.8405 3.425618-.3737.33251-.739.67461-1.0957 1.02596-.2388-.23364-.4818-.46274-.7289-.68719-3.9734-3.601054-7.9561-5.118773-10.3476-3.705616-2.29333 1.355086-2.97241 5.378416-2.00716 10.413116.09603.4987.20446.9947.32519 1.4878-.56375.1635-1.10774.3375-1.62835.5228-4.6585 1.6579-7.63348 4.2559-7.63348 6.9508 0 2.7834 3.19378 5.5751 8.04581 7.2679.39337.1367.79.2634 1.18955.3799-.12976.531-.24496 1.0656-.34547 1.6031-.92022 4.9474-.20161 8.8756 2.08551 10.2221 2.3623 1.3906 6.3271-.0386 10.1876-3.4833.313-.2801.6192-.568.9181-.8637.3863.3805.7829.7498 1.1894 1.1077 3.7397 3.2846 7.4329 4.6109 9.7178 3.2607 2.36-1.3945 3.1271-5.6145 2.1313-10.7487-.0785-.4023-.1665-.8025-.2639-1.2004.2785-.0842.5518-.1709.8182-.261 5.0441-1.7058 8.3261-4.4637 8.3261-7.2843 0-2.7047-3.0711-5.3203-7.8232-6.9901zm-1.094 12.4533c-.2406.0812-.4875.1597-.7391.236-.5569-1.7995-1.3083-3.7128-2.228-5.6899.8776-1.9298 1.6002-3.8187 2.1414-5.6064.4501.1329.8869.2731 1.308.421 4.0717 1.4309 6.5553 3.5461 6.5553 5.1761 0 1.7362-2.6823 3.99-7.0376 5.4632zm-1.8071 3.6551c.4403 2.2702.5031 4.3228.2114 5.9275-.2619 1.442-.7889 2.4032-1.4407 2.7883-1.3865.8193-4.3518-.2456-7.5499-3.0548-.3781-.3327-.747-.6761-1.1064-1.0298 1.2399-1.384 2.479-2.993 3.6883-4.78 2.1271-.1926 4.1367-.5077 5.9591-.9377.0897.3696.1694.7321.2382 1.0865zm-18.2751 8.5742c-1.3548.4882-2.4338.5023-3.0861.1184-1.3878-.817-1.96483-3.9712-1.1778-8.2021.0935-.4999.2007-.9971.3212-1.491 1.8023.407 3.7973.6996 5.9294.8761 1.2175 1.7486 2.4923 3.3558 3.7771 4.7632-.273.2696-.5525.5324-.8382.788-1.7073 1.5232-3.418 2.6039-4.9256 3.1474zm-6.34669-12.24c-2.14552-.7486-3.91738-1.7214-5.13185-2.783-1.0914-.9538-1.64226-1.901-1.64226-2.6695 0-1.6354 2.38854-3.7214 6.37243-5.1391.48349-.1719.98949-.3342 1.51457-.4865.5507 1.8281 1.2729 3.7395 2.1445 5.6723-.8829 1.9614-1.6155 3.9033-2.17149 5.753-.3647-.1066-.72678-.2224-1.0859-.3472zm2.12749-14.7825c-.82692-4.31346-.2778-7.56732 1.1043-8.38399 1.4719-.86982 4.7269.37035 8.1577 3.47982.2237.20323.4438.41057.6601.62193-1.2784 1.40123-2.5415 2.9965-3.7482 4.73474-2.0694.1958-4.0502.5102-5.8714.9314-.1122-.4586-.2131-.9199-.3025-1.3837zm18.9796 4.7839c-.4301-.7584-.8763-1.5073-1.338-2.2461 1.4038.1812 2.7489.4217 4.012.7158-.3791 1.2407-.8518 2.5377-1.4081 3.8675-.4067-.7876-.8287-1.5668-1.2659-2.3372zm-7.7399-7.69491c.867.95877 1.7353 2.02913 2.5893 3.19051-1.7325-.0835-3.4679-.0839-5.2004-.001.8549-1.15074 1.7306-2.21968 2.6111-3.18951zm-7.7895 7.70811c-.4317.7641-.8459 1.5385-1.2421 2.3224-.5473-1.3251-1.0157-2.6281-1.3981-3.8863 1.2554-.2867 2.5941-.5211 3.9891-.6989-.4669.7433-.9167 1.4977-1.3489 2.2626zm1.3889 11.4652c-1.4412-.1642-2.8-.3865-4.055-.6654.3884-1.2807.8671-2.6114 1.4262-3.9649.3978.7845.8137 1.5593 1.2473 2.3238.4458.786.9075 1.5558 1.3815 2.3065zm6.4525 5.4439c-.891-.9811-1.7795-2.0665-2.6473-3.2339.8425.0337 1.7013.0509 2.5743.0509.8968 0 1.7834-.0205 2.656-.0602-.8568 1.1884-1.7219 2.2755-2.583 3.2432zm8.9716-10.1433c.5881 1.3684 1.0838 2.6921 1.4774 3.9508-1.2756.2972-2.653.5365-4.1044.7142.4651-.7525.9154-1.5144 1.3508-2.2852.4426-.7835.8681-1.577 1.2762-2.3798zm-2.9044 1.4212c-.6665 1.1818-1.3704 2.3412-2.1108 3.4763-1.341.0969-2.685.1451-4.0294.1444-1.3693 0-2.7012-.0435-3.9837-.1284-.7597-1.1325-1.4771-2.2939-2.1507-3.4818h.0002c-.6705-1.1816-1.2967-2.3887-1.8774-3.6188.5792-1.2303 1.2036-2.438 1.8717-3.6205l-.0002.0002c.6679-1.1828 1.3796-2.3392 2.1335-3.4669 1.3085-.101 2.6503-.1536 4.0064-.1536h.0002c1.3623 0 2.7058.0531 4.014.1549.7463 1.1259 1.4534 2.2784 2.12 3.4552.6704 1.1799 1.303 2.3817 1.8969 3.6035-.5878 1.2344-1.2184 2.447-1.8907 3.6355zm3.8775-21.42528c1.4733.86737 2.0464 4.36508 1.1207 8.95188-.0592.2927-.1255.5907-.1977.893-1.8257-.4301-3.8079-.75-5.8833-.9487-1.2089-1.75741-2.4617-3.35513-3.7194-4.73829.3296-.32429.6671-.64018 1.012-.94737 3.2485-2.88543 6.2845-4.02473 7.6677-3.21052zm-10.0177 13.76068c2.1699 0 3.9291 1.7956 3.9291 4.0105 0 2.215-1.7592 4.0106-3.9291 4.0106s-3.9291-1.7956-3.9291-4.0106c0-2.2149 1.7592-4.0105 3.9291-4.0105z" fill="#00d8ff"/></svg>