<?xml version="1.0" encoding="utf-8"?><svg fill="none" height="40" viewBox="0 0 39 40" width="39" xmlns="http://www.w3.org/2000/svg"><path d="m37.1719 0h-35.34378c-1.009641 0-1.82812.839466-1.82812 1.875v36.25c0 1.0355.818479 1.875 1.82812 1.875h35.34378c1.0096 0 1.8281-.8395 1.8281-1.875v-36.25c0-1.035534-.8185-1.875-1.8281-1.875z" fill="#3178c6"/><path clip-rule="evenodd" d="m22.6268 31.0838v4.3831c.6923.365 1.5112.639 2.4565.8215.9454.1829 1.9417.2741 2.9891.2741 1.0208 0 1.9906-.1003 2.9091-.3012.919-.201 1.7243-.5319 2.4168-.9932.6923-.4612 1.2404-1.0637 1.6444-1.8081.4037-.7441.6057-1.6641.6057-2.7598 0-.7944-.1154-1.4906-.3461-2.0888-.2309-.5981-.5637-1.1299-.9988-1.5956-.4347-.4657-.9564-.8835-1.5642-1.2533-.6082-.3698-1.2937-.7191-2.0573-1.0478-.5591-.2374-1.0606-.468-1.5045-.6917-.4438-.2237-.821-.452-1.1317-.6848-.3107-.2329-.5503-.4794-.719-.7397-.1686-.2602-.253-.5547-.253-.8834 0-.3014.0755-.573.2264-.815s.3639-.4497.6391-.6232.6124-.3082 1.0119-.4041c.3994-.0959.8432-.1438 1.3314-.1438.3553 0 .73.0274 1.1252.0822.3949.0548.7922.1392 1.1916.2534.3995.1141.7876.2579 1.1652.4314.3772.1735.7254.3744 1.045.6027v-4.0954c-.648-.2556-1.3558-.4451-2.1236-.5684-.7679-.1233-1.6487-.1849-2.643-.1849-1.0119 0-1.9706.1118-2.876.3356-.9053.2237-1.702.573-2.3899 1.0478-.688.4748-1.2316 1.0798-1.6311 1.8148-.3994.7351-.5991 1.614-.5991 2.6367 0 1.3058.3661 2.4198 1.0984 3.342.7324.9223 1.8441 1.703 3.3353 2.3422.5859.2465 1.1318.4885 1.6377.7259.506.2374.9432.484 1.3115.7397.3684.2556.659.5341.872.8355.2133.3013.3196.6437.3196 1.0272 0 .2832-.0664.5457-.1996.7876-.1331.2419-.3351.4519-.6059.63-.2707.1781-.608.3175-1.0119.4178-.4038.1003-.8765.1506-1.418.1506-.9231 0-1.8374-.1665-2.7428-.5-.9054-.3331-1.7442-.8331-2.5164-1.4996zm-7.1784-10.9106h5.575v-3.6107h-15.53902v3.6107h5.54772v16.0768h4.4163z" fill="#fff" fill-rule="evenodd"/></svg>